<svg xmlns="http://www.w3.org/2000/svg" width="50.113" height="45.034" viewBox="0 0 50.113 45.034">
  <g id="i-alert" transform="translate(-31.442 -53.5)">
    <g id="그룹_1" data-name="그룹 1" transform="translate(31.442 53.5)">
      <path id="패스_1" data-name="패스 1" d="M42.851,53.5q1.461.184.95,1.565-1.949.792-3.857,1.733A13.439,13.439,0,0,0,33.4,70.045a16.876,16.876,0,0,1,.335,2.348,1.012,1.012,0,0,1-1.509.5.78.78,0,0,1-.279-.391,15.451,15.451,0,0,1,5.086-16.041A16.537,16.537,0,0,1,42.851,53.5Z" transform="translate(-31.442 -53.5)" fill-rule="evenodd" opacity="0.925"/>
    </g>
    <g id="그룹_2" data-name="그룹 2" transform="translate(69.051 53.5)">
      <path id="패스_2" data-name="패스 2" d="M368.73,53.5a15.411,15.411,0,0,1,9.893,7.713,15.73,15.73,0,0,1,1.23,11.291,1,1,0,0,1-1.174.5,1.235,1.235,0,0,1-.615-.615,14.273,14.273,0,0,0-2.906-12.856,16.127,16.127,0,0,0-3.521-2.851q-1.813-.845-3.633-1.621A1.044,1.044,0,0,1,368.73,53.5Z" transform="translate(-367.878 -53.5)" fill-rule="evenodd" opacity="0.926"/>
    </g>
    <g id="그룹_3" data-name="그룹 3" transform="translate(39.268 54.59)">
      <path id="패스_3" data-name="패스 3" d="M117.776,63.281q4.373-.36,4.919,3.968a4.764,4.764,0,0,1-.783,2.515,13.385,13.385,0,0,1,9.781,10.284q.149.833.224,1.677.056,6.484.112,12.967,1.749,2.211,3.577,4.36,1,2.422-1.509,3.074l-9.39.112q-1.44,5.4-7.043,4.919-5.127-1.172-4.975-6.428a.988.988,0,0,1,.391-.391q10.453-.028,20.9-.168l-3.857-4.807q-.056-6.763-.112-13.526a11.507,11.507,0,0,0-8.775-10.229q-8.719-1.383-12.911,6.316a11.663,11.663,0,0,0-1.006,3.913q-.084,6.092-.056,12.185,9.67-.028,19.339.056,1.235.319.727,1.509a.78.78,0,0,1-.391.279l-20.122.112q-1.764,2.072-3.465,4.192,3.073.14,6.148.168a.988.988,0,0,1,.224,1.565,2.569,2.569,0,0,1-.559.224q-2.962.112-5.925,0-2.51-.647-1.509-3.074,1.829-2.149,3.577-4.36.056-6.484.112-12.967a13.334,13.334,0,0,1,6.428-10.452,12.354,12.354,0,0,1,3.577-1.4,7.744,7.744,0,0,1-.727-2.012A4.109,4.109,0,0,1,117.776,63.281Zm.447,1.9q2.9.075,2.4,2.906a2.175,2.175,0,0,1-3.3.838,2.112,2.112,0,0,1,.112-3.354Zm-3.577,37h8.049a4.119,4.119,0,0,1-8.049,0Z" transform="translate(-101.449 -63.253)" fill-rule="evenodd" opacity="0.936"/>
    </g>
    <g id="그룹_4" data-name="그룹 4" transform="translate(36.606 58.53)">
      <path id="패스_4" data-name="패스 4" d="M85,98.493q1.558-.037,1.174,1.453a1.289,1.289,0,0,1-.5.391,8.435,8.435,0,0,0-6.26,7.993,25.24,25.24,0,0,1,.279,2.795.947.947,0,0,1-1.4.391,2.451,2.451,0,0,1-.615-1.621Q77.081,101.4,85,98.493Z" transform="translate(-77.632 -98.492)" fill-rule="evenodd" opacity="0.924"/>
    </g>
    <g id="그룹_5" data-name="그룹 5" transform="translate(67.67 58.53)">
      <path id="패스_5" data-name="패스 5" d="M356.078,98.5a9.468,9.468,0,0,1,7.1,5.142,11,11,0,0,1,.894,6.931,1.057,1.057,0,0,1-1.4,1.062.84.84,0,0,1-.5-.5,25.352,25.352,0,0,0,.112-4.024,8.369,8.369,0,0,0-6.092-6.763Q354.911,99.5,356.078,98.5Z" transform="translate(-355.521 -98.5)" fill-rule="evenodd" opacity="0.923"/>
    </g>
  </g>
</svg>
