<svg xmlns="http://www.w3.org/2000/svg" width="36" height="27" viewBox="0 0 36 27"><path d="M0,31.5V4.5H1.266v27Zm1.888-.019V4.5h.643V31.481Zm1.908,0V4.5H4.42V31.481Zm3.154,0V4.5h.623V31.481Zm2.531,0V4.5h1.246V31.481Zm3.154,0V4.5h.623V31.481Zm1.266,0V4.5h.623V31.481Zm1.266,0V4.5h.623V31.481Zm2.511,0V4.5h1.266V31.481Zm3.154,0V4.5H22.1V31.481Zm2.531,0V4.5h1.266V31.481Zm2.531,0V4.5h1.266V31.481Zm1.888,0V4.5h1.266V31.481Zm3.174,0V4.5h1.888V31.481Zm2.511,0V4.5h.643V31.481Zm1.266.019V4.5H36v27Z" transform="translate(0 -4.5)"/></svg>